<svg id="facebook" xmlns="http://www.w3.org/2000/svg" width="32.583" height="32.583" viewBox="0 0 32.583 32.583">
  <path id="Path_394" data-name="Path 394" d="M30.785,0H1.8A1.8,1.8,0,0,0,0,1.8V30.786a1.8,1.8,0,0,0,1.8,1.8H30.785a1.8,1.8,0,0,0,1.8-1.8h0V1.8a1.8,1.8,0,0,0-1.8-1.8Zm0,0" transform="translate(0 0)" fill="#4267b2"/>
  <path id="Path_395" data-name="Path 395" d="M216.323,104.987v-12.6h4.248l.636-4.932h-4.884V84.313c0-1.425.4-2.4,2.438-2.4h2.589v-4.4a34.806,34.806,0,0,0-3.794-.194c-3.755,0-6.324,2.291-6.324,6.5v3.63H207v4.932h4.232v12.6Zm0,0" transform="translate(-193.827 -72.403)" fill="#fff"/>
</svg>
