<svg id="Web" xmlns="http://www.w3.org/2000/svg" width="24.864" height="24.864" viewBox="0 0 24.864 24.864">
  <path id="Path_4" data-name="Path 4" d="M3.73,3.73A11.286,11.286,0,0,1,12.432,0a11.286,11.286,0,0,1,8.7,3.73,11.286,11.286,0,0,1,3.73,8.7,11.286,11.286,0,0,1-3.73,8.7,11.286,11.286,0,0,1-8.7,3.73,11.286,11.286,0,0,1-8.7-3.73A12.407,12.407,0,0,1,0,12.432,11.286,11.286,0,0,1,3.73,3.73ZM14.09,22.378q1.243,0,3.108-1.865a9.05,9.05,0,0,0,1.45-4.351,3.431,3.431,0,0,0-1.036-2.486,3.647,3.647,0,0,0-2.694-1.243H12.846a6.05,6.05,0,0,1-1.865-.414,1.881,1.881,0,0,1-.622-1.45,1.076,1.076,0,0,1,.414-.829,1.571,1.571,0,0,1,.829-.414,1.414,1.414,0,0,1,1.036.622c.414.207.622.414.829.414a1.246,1.246,0,0,0,.829-.207,1.246,1.246,0,0,0,.207-.829,3.3,3.3,0,0,0-1.036-2.072A8.57,8.57,0,0,0,14.5,3.315.446.446,0,0,0,14.09,2.9a6.405,6.405,0,0,0-1.658-.414A10.365,10.365,0,0,0,7.045,4.144,5.216,5.216,0,0,0,5.18,8.288a5.305,5.305,0,0,0,1.658,3.937,5.661,5.661,0,0,0,3.937,1.658h0v.829a2.66,2.66,0,0,0,.829,2.072,3.017,3.017,0,0,0,1.865,1.243v3.73c0,.207,0,.207.207.414S13.882,22.378,14.09,22.378Z" fill="#2699fb"/>
</svg>
